<?xml version="1.0" encoding="utf-8"?>
<!-- Generator: Adobe Illustrator 24.1.2, SVG Export Plug-In . SVG Version: 6.00 Build 0)  -->
<svg version="1.1" id="Layer_1" xmlns="http://www.w3.org/2000/svg" xmlns:xlink="http://www.w3.org/1999/xlink" x="0px" y="0px"
	 viewBox="0 0 200 200" style="enable-background:new 0 0 200 200;" xml:space="preserve">
<style type="text/css">
	.st0{fill:#00BC87;}
	.st1{fill:#009668;}
	.st2{fill:#00A979;}
	.st3{fill:#252832;}
	.st4{fill:#917676;}
</style>
<g>
	<g>
		<polygon class="st0" points="100,45.08 114.12,53.15 100,61.22 85.88,53.15 		"/>
		<polygon class="st1" points="85.88,53.15 100,61.22 100,76.35 85.88,68.28 		"/>
		<polygon class="st2" points="100,76.35 114.12,68.28 114.12,53.15 100,61.22 		"/>
	</g>
	<g>
		<polygon class="st0" points="100,122.74 114.12,130.8 100,138.87 85.88,130.8 		"/>
		<polygon class="st1" points="85.88,130.8 100,138.87 100,154 85.88,145.93 		"/>
		<polygon class="st2" points="100,154 114.12,145.93 114.12,130.8 100,138.87 		"/>
	</g>
	<g>
		<polygon class="st0" points="114.12,99.48 128.24,107.55 114.12,115.62 100,107.55 		"/>
		<polygon class="st1" points="100,107.55 114.12,115.62 114.12,130.75 100,122.68 		"/>
		<polygon class="st2" points="114.12,130.75 128.24,122.68 128.24,107.55 114.12,115.62 		"/>
	</g>
	<g>
		<polygon class="st0" points="128.24,76.29 142.36,84.36 128.24,92.42 114.12,84.36 		"/>
		<polygon class="st1" points="114.12,84.36 128.24,92.42 128.24,107.55 114.12,99.48 		"/>
		<polygon class="st2" points="128.24,107.55 142.36,99.48 142.36,84.36 128.24,92.42 		"/>
	</g>
	<g>
		<polygon class="st0" points="142.36,53.09 156.48,61.16 142.36,69.23 128.24,61.16 		"/>
		<polygon class="st1" points="128.24,61.16 142.36,69.23 142.36,84.36 128.24,76.29 		"/>
		<polygon class="st2" points="142.36,84.36 156.48,76.29 156.48,61.16 142.36,69.23 		"/>
	</g>
	<g>
		<polygon class="st0" points="71.76,76.35 85.88,84.41 71.76,92.48 57.64,84.41 		"/>
		<polygon class="st1" points="57.64,84.41 71.76,92.48 71.76,107.61 57.64,99.54 		"/>
		<polygon class="st2" points="71.76,107.61 85.88,99.54 85.88,84.41 71.76,92.48 		"/>
	</g>
	<g>
		<polygon class="st0" points="57.64,53.15 71.76,61.22 57.64,69.29 43.52,61.22 		"/>
		<polygon class="st1" points="43.52,61.22 57.64,69.29 57.64,84.41 43.52,76.35 		"/>
		<polygon class="st2" points="57.64,84.41 71.76,76.35 71.76,61.22 57.64,69.29 		"/>
	</g>
	<g>
		<polygon class="st0" points="85.88,99.54 100,107.61 85.88,115.68 71.76,107.61 		"/>
		<polygon class="st1" points="71.76,107.61 85.88,115.68 85.88,130.8 71.76,122.74 		"/>
		<polygon class="st2" points="85.88,130.8 100,122.74 100,107.61 85.88,115.68 		"/>
	</g>
</g>
</svg>
