<?xml version="1.0" encoding="utf-8"?>
<!-- Generator: Adobe Illustrator 25.0.1, SVG Export Plug-In . SVG Version: 6.00 Build 0)  -->
<svg version="1.1" id="Layer_1" xmlns="http://www.w3.org/2000/svg" xmlns:xlink="http://www.w3.org/1999/xlink" x="0px" y="0px"
	 viewBox="0 0 149.9 40" style="enable-background:new 0 0 149.9 40;" xml:space="preserve">
<style type="text/css">
	.st0{clip-path:url(#SVGID_2_);}
	.st1{fill:#00CD81;}
	.st2{fill:#E6FAF2;}
	.st3{fill:#007B4D;}
	.st4{fill:#99EBCD;}
	.st5{fill:#00DC81;}
	.st6{fill:#00BC87;}
	.st7{fill:#009668;}
	.st8{fill:#00A979;}
	.st9{fill:#FFFFFF;}
</style>
<g>
	<g>
		<polygon class="st6" points="20.8,0 26,3 20.8,5.9 15.6,3 		"/>
		<polygon class="st7" points="15.6,3 20.8,5.9 20.8,11.5 15.6,8.5 		"/>
		<polygon class="st8" points="20.8,11.5 26,8.5 26,3 20.8,5.9 		"/>
	</g>
	<g>
		<polygon class="st6" points="20.8,28.5 26,31.5 20.8,34.4 15.6,31.5 		"/>
		<polygon class="st7" points="15.6,31.5 20.8,34.4 20.8,40 15.6,37 		"/>
		<polygon class="st8" points="20.8,40 26,37 26,31.5 20.8,34.4 		"/>
	</g>
	<g>
		<polygon class="st6" points="26,20 31.2,22.9 26,25.9 20.8,22.9 		"/>
		<polygon class="st7" points="20.8,22.9 26,25.9 26,31.5 20.8,28.5 		"/>
		<polygon class="st8" points="26,31.5 31.2,28.5 31.2,22.9 26,25.9 		"/>
	</g>
	<g>
		<polygon class="st6" points="31.2,11.5 36.4,14.4 31.2,17.4 26,14.4 		"/>
		<polygon class="st7" points="26,14.4 31.2,17.4 31.2,22.9 26,20 		"/>
		<polygon class="st8" points="31.2,22.9 36.4,20 36.4,14.4 31.2,17.4 		"/>
	</g>
	<g>
		<polygon class="st6" points="36.4,2.9 41.6,5.9 36.4,8.9 31.2,5.9 		"/>
		<polygon class="st7" points="31.2,5.9 36.4,8.9 36.4,14.4 31.2,11.5 		"/>
		<polygon class="st8" points="36.4,14.4 41.6,11.5 41.6,5.9 36.4,8.9 		"/>
	</g>
	<g>
		<polygon class="st6" points="10.4,11.5 15.6,14.4 10.4,17.4 5.3,14.4 		"/>
		<polygon class="st7" points="5.3,14.4 10.4,17.4 10.4,23 5.3,20 		"/>
		<polygon class="st8" points="10.4,23 15.6,20 15.6,14.4 10.4,17.4 		"/>
	</g>
	<g>
		<polygon class="st6" points="5.3,3 10.4,5.9 5.3,8.9 0.1,5.9 		"/>
		<polygon class="st7" points="0.1,5.9 5.3,8.9 5.3,14.4 0.1,11.5 		"/>
		<polygon class="st8" points="5.3,14.4 10.4,11.5 10.4,5.9 5.3,8.9 		"/>
	</g>
	<g>
		<polygon class="st6" points="15.6,20 20.8,23 15.6,25.9 10.4,23 		"/>
		<polygon class="st7" points="10.4,23 15.6,25.9 15.6,31.5 10.4,28.5 		"/>
		<polygon class="st8" points="15.6,31.5 20.8,28.5 20.8,23 15.6,25.9 		"/>
	</g>
</g>
<g>
	<g>
		<path class="st9" d="M56.7,30L50,14.3c-0.1-0.2-0.2-0.5-0.2-0.8c0-0.9,0.7-1.6,1.7-1.6c0.9,0,1.5,0.5,1.7,1.2l5.5,13.8l5.6-13.9
			c0.2-0.6,0.8-1.1,1.6-1.1c0.9,0,1.7,0.7,1.7,1.6c0,0.2-0.1,0.5-0.2,0.7L60.7,30c-0.4,0.8-1,1.4-1.9,1.4h-0.2
			C57.7,31.4,57,30.9,56.7,30z"/>
		<path class="st9" d="M82.3,29.6c0,0.9-0.7,1.6-1.7,1.6c-0.9,0-1.7-0.7-1.7-1.6v-0.7c-0.9,1.4-2.3,2.5-4.5,2.5
			c-3.3,0-5.2-2.2-5.2-5.6v-7.7c0-0.9,0.7-1.7,1.6-1.7c0.9,0,1.7,0.7,1.7,1.7v6.7c0,2.2,1.1,3.5,3.1,3.5c1.9,0,3.3-1.3,3.3-3.6v-6.7
			c0-0.9,0.7-1.7,1.7-1.7c0.9,0,1.7,0.7,1.7,1.7V29.6z"/>
		<path class="st9" d="M92.5,31.5c-4.2,0-7.4-3-7.4-7.5v-0.1c0-4.1,2.9-7.5,7.1-7.5c4.6,0,6.9,3.8,6.9,7.1c0,0.9-0.7,1.6-1.6,1.6
			h-9.1c0.4,2.4,2,3.7,4.2,3.7c1.4,0,2.5-0.5,3.4-1.3c0.2-0.2,0.5-0.3,0.8-0.3c0.7,0,1.3,0.6,1.3,1.3c0,0.4-0.2,0.8-0.4,1
			C96.4,30.7,94.8,31.5,92.5,31.5z M95.8,22.9c-0.2-2.1-1.5-3.8-3.7-3.8c-2,0-3.5,1.6-3.8,3.8H95.8z"/>
		<path class="st6" d="M102.3,13.5c0-0.9,0.7-1.7,1.7-1.7h0.4c0.7,0,1.2,0.4,1.6,0.9l5.8,9.1l5.8-9.1c0.4-0.6,0.8-0.9,1.5-0.9h0.4
			c1,0,1.7,0.8,1.7,1.7v16.1c0,0.9-0.7,1.7-1.7,1.7c-0.9,0-1.7-0.8-1.7-1.7V18.1l-4.7,7c-0.4,0.5-0.8,0.9-1.4,0.9
			c-0.6,0-1-0.3-1.4-0.9l-4.7-7v11.5c0,0.9-0.7,1.6-1.7,1.6c-0.9,0-1.6-0.7-1.6-1.6V13.5z"/>
		<path class="st6" d="M125,29c-0.4-0.3-0.7-0.7-0.7-1.3c0-0.9,0.7-1.6,1.6-1.6c0.5,0,0.8,0.1,1,0.3c1.6,1.3,3.3,2,5.4,2
			s3.4-1,3.4-2.4V26c0-1.4-0.8-2.1-4.3-2.9c-4.1-1-6.4-2.2-6.4-5.7v-0.1c0-3.3,2.7-5.6,6.5-5.6c2.4,0,4.4,0.6,6.1,1.8
			c0.4,0.2,0.7,0.7,0.7,1.3c0,0.9-0.7,1.6-1.6,1.6c-0.3,0-0.6-0.1-0.9-0.2c-1.5-1-2.9-1.5-4.4-1.5c-2,0-3.1,1-3.1,2.3V17
			c0,1.5,0.9,2.1,4.6,3c4.1,1,6.1,2.4,6.1,5.6v0.1c0,3.6-2.8,5.7-6.8,5.7C129.6,31.4,127.1,30.6,125,29z"/>
	</g>
</g>
</svg>
